<?xml version="1.0" encoding="UTF-8" standalone="no"?>
<!-- Generator: Adobe Illustrator 12.0.1, SVG Export Plug-In . SVG Version: 6.00 Build 51448)  -->
<svg
   xmlns:dc="http://purl.org/dc/elements/1.1/"
   xmlns:cc="http://web.resource.org/cc/"
   xmlns:rdf="http://www.w3.org/1999/02/22-rdf-syntax-ns#"
   xmlns:svg="http://www.w3.org/2000/svg"
   xmlns="http://www.w3.org/2000/svg"
   xmlns:sodipodi="http://sodipodi.sourceforge.net/DTD/sodipodi-0.dtd"
   xmlns:inkscape="http://www.inkscape.org/namespaces/inkscape"
   version="1.1"
   id="Layer_1"
   width="274.311"
   height="96.152"
   viewBox="0 0 274.311 96.152"
   style="overflow:visible;enable-background:new 0 0 274.311 96.152;"
   xml:space="preserve"
   sodipodi:version="0.32"
   inkscape:version="0.45.1"
   sodipodi:docname="Acetylcholin.svg"
   inkscape:output_extension="org.inkscape.output.svg.inkscape"
   sodipodi:docbase="C:\Dokumente und Einstellungen\Jonas Töle\Eigene Dateien"><metadata
   id="metadata84"><rdf:RDF><cc:Work
       rdf:about=""><dc:format>image/svg+xml</dc:format><dc:type
         rdf:resource="http://purl.org/dc/dcmitype/StillImage" /></cc:Work></rdf:RDF></metadata><defs
   id="defs82" /><sodipodi:namedview
   inkscape:window-height="579"
   inkscape:window-width="801"
   inkscape:pageshadow="2"
   inkscape:pageopacity="0.0"
   guidetolerance="10.0"
   gridtolerance="10.0"
   objecttolerance="10.0"
   borderopacity="1.0"
   bordercolor="#666666"
   pagecolor="#ffffff"
   id="base"
   inkscape:zoom="2.6138215"
   inkscape:cx="137.1555"
   inkscape:cy="48.076"
   inkscape:window-x="110"
   inkscape:window-y="110"
   inkscape:current-layer="Layer_1" />
<g
   id="g3"
   transform="matrix(0.95,0,0,0.95,6.8578,2.403825)">
	<path
   d="M 164.245,68.568 C 164.245,65.715 165.011,63.483 166.542,61.87 C 168.075,60.256 170.052,59.449 172.476,59.449 C 174.062,59.449 175.493,59.828 176.767,60.586 C 178.04,61.345 179.011,62.401 179.68,63.757 C 180.349,65.113 180.683,66.651 180.683,68.369 C 180.683,70.112 180.331,71.671 179.627,73.046 C 178.923,74.421 177.927,75.463 176.638,76.17 C 175.347,76.877 173.956,77.231 172.464,77.231 C 170.845,77.231 169.4,76.84 168.126,76.059 C 166.851,75.278 165.886,74.21 165.23,72.859 C 164.574,71.508 164.245,70.077 164.245,68.568 z M 166.588,68.598 C 166.588,70.668 167.145,72.299 168.258,73.491 C 169.373,74.682 170.77,75.278 172.451,75.278 C 174.162,75.278 175.572,74.676 176.678,73.473 C 177.784,72.27 178.338,70.563 178.338,68.352 C 178.338,66.954 178.102,65.733 177.628,64.69 C 177.154,63.647 176.463,62.838 175.553,62.264 C 174.642,61.69 173.619,61.403 172.487,61.403 C 170.876,61.403 169.491,61.956 168.329,63.061 C 167.168,64.166 166.588,66.012 166.588,68.598 z "
   id="path5" />
</g>
<path
   d="M 162.55045,60.861125 L 161.7439,62.286125 L 138.0889,48.606125 L 138.0889,46.753625 L 162.55045,60.861125 z "
   id="polygon7" />
<path
   d="M 138.0889,46.753625 L 138.0889,48.606125 L 105.4089,67.462675 L 105.4089,65.611125 L 138.0889,46.753625 z "
   id="polygon9" />
<g
   id="g11"
   transform="matrix(0.95,0,0,0.95,6.8578,2.403825)">
	<path
   d="M 62.566,57.084 L 62.566,39.896 L 64.906,39.896 L 73.91,53.385 L 73.91,39.896 L 76.098,39.896 L 76.098,57.084 L 73.758,57.084 L 64.754,43.595 L 64.754,57.084 L 62.566,57.084 z "
   id="path13" />
</g>
<path
   d="M 105.4089,65.611125 L 105.4089,67.462675 L 82.0864,53.973625 L 82.8939,52.596125 L 105.4089,65.611125 z "
   id="polygon15" />
<g
   id="g17"
   transform="matrix(0.95,0,0,0.95,6.8578,2.403825)">
	<path
   d="M 0,37.284 L 0,20.097 L 2.281,20.097 L 2.281,27.16 L 11.172,27.16 L 11.172,20.097 L 13.453,20.097 L 13.453,37.285 L 11.172,37.285 L 11.172,29.19 L 2.281,29.19 L 2.281,37.284 L 0,37.284 z "
   id="path19" />
</g>
<g
   id="g21"
   transform="matrix(0.95,0,0,0.95,6.8578,2.403825)">
	<path
   d="M 15.462,38.378 L 17.04,38.159 C 17.223,39.055 17.532,39.701 17.968,40.097 C 18.405,40.492 18.94,40.69 19.575,40.69 C 20.328,40.69 20.961,40.432 21.474,39.918 C 21.987,39.402 22.243,38.764 22.243,38.002 C 22.243,37.276 22.005,36.678 21.527,36.206 C 21.05,35.734 20.444,35.499 19.708,35.499 C 19.407,35.499 19.033,35.558 18.586,35.675 L 18.763,34.284 C 18.869,34.296 18.954,34.302 19.019,34.302 C 19.693,34.302 20.3,34.127 20.84,33.776 C 21.38,33.425 21.65,32.884 21.65,32.153 C 21.65,31.574 21.453,31.094 21.059,30.715 C 20.665,30.335 20.157,30.145 19.534,30.145 C 18.917,30.145 18.402,30.339 17.991,30.727 C 17.58,31.115 17.315,31.697 17.198,32.473 L 15.62,32.192 C 15.813,31.13 16.254,30.307 16.94,29.724 C 17.626,29.14 18.48,28.848 19.501,28.848 C 20.205,28.848 20.854,28.998 21.446,29.3 C 22.038,29.601 22.491,30.012 22.806,30.532 C 23.119,31.053 23.277,31.605 23.277,32.19 C 23.277,32.746 23.128,33.252 22.829,33.708 C 22.53,34.164 22.088,34.526 21.502,34.796 C 22.264,34.972 22.856,35.337 23.281,35.89 C 23.705,36.445 23.918,37.137 23.918,37.969 C 23.918,39.095 23.507,40.048 22.685,40.83 C 21.863,41.612 20.824,42.004 19.568,42.004 C 18.435,42.004 17.494,41.667 16.746,40.995 C 15.994,40.32 15.567,39.449 15.462,38.378 z "
   id="path23" />
</g>
<g
   id="g25"
   transform="matrix(0.95,0,0,0.95,6.8578,2.403825)">
	<path
   d="M 38.039,31.257 L 40.32,31.831 C 39.844,33.701 38.987,35.127 37.751,36.108 C 36.514,37.089 35.001,37.581 33.214,37.581 C 31.364,37.581 29.86,37.204 28.701,36.449 C 27.542,35.695 26.66,34.601 26.055,33.171 C 25.45,31.74 25.148,30.203 25.148,28.562 C 25.148,26.772 25.489,25.209 26.172,23.876 C 26.855,22.543 27.826,21.529 29.087,20.838 C 30.347,20.147 31.733,19.8 33.247,19.8 C 34.964,19.8 36.407,20.238 37.577,21.114 C 38.748,21.991 39.563,23.222 40.023,24.811 L 37.789,25.338 C 37.391,24.088 36.814,23.178 36.058,22.608 C 35.301,22.038 34.349,21.753 33.203,21.753 C 31.885,21.753 30.783,22.069 29.897,22.702 C 29.012,23.335 28.39,24.184 28.031,25.251 C 27.672,26.318 27.493,27.417 27.493,28.55 C 27.493,30.011 27.705,31.286 28.13,32.376 C 28.555,33.466 29.215,34.28 30.112,34.819 C 31.009,35.358 31.979,35.628 33.024,35.628 C 34.295,35.628 35.37,35.261 36.251,34.526 C 37.132,33.791 37.727,32.702 38.039,31.257 z "
   id="path27" />
</g>
<path
   d="M 63.4189,41.338625 L 62.6114,42.716125 L 49.0264,34.926125 L 49.8339,33.501125 L 63.4189,41.338625 z "
   id="polygon29" />
<g
   id="g31"
   transform="matrix(0.95,0,0,0.95,6.8578,2.403825)">
	<path
   d="M 94.681,16.757 L 96.962,17.331 C 96.486,19.201 95.629,20.627 94.393,21.608 C 93.156,22.589 91.643,23.081 89.856,23.081 C 88.006,23.081 86.502,22.704 85.343,21.949 C 84.184,21.195 83.302,20.101 82.697,18.671 C 82.092,17.24 81.79,15.703 81.79,14.062 C 81.79,12.272 82.131,10.709 82.814,9.376 C 83.497,8.043 84.468,7.029 85.729,6.338 C 86.989,5.647 88.375,5.3 89.889,5.3 C 91.606,5.3 93.049,5.738 94.219,6.614 C 95.39,7.491 96.205,8.722 96.665,10.311 L 94.431,10.838 C 94.033,9.588 93.456,8.678 92.7,8.108 C 91.943,7.538 90.991,7.253 89.845,7.253 C 88.527,7.253 87.425,7.569 86.539,8.202 C 85.654,8.835 85.032,9.684 84.673,10.751 C 84.314,11.818 84.135,12.917 84.135,14.05 C 84.135,15.511 84.347,16.786 84.772,17.876 C 85.197,18.966 85.857,19.78 86.754,20.319 C 87.651,20.858 88.621,21.128 89.666,21.128 C 90.937,21.128 92.012,20.761 92.893,20.026 C 93.774,19.291 94.369,18.202 94.681,16.757 z "
   id="path33" />
	<path
   d="M 99.857,22.784 L 99.857,5.597 L 102.138,5.597 L 102.138,12.66 L 111.029,12.66 L 111.029,5.597 L 113.31,5.597 L 113.31,22.785 L 111.029,22.785 L 111.029,14.69 L 102.138,14.69 L 102.138,22.784 L 99.857,22.784 z "
   id="path35" />
</g>
<g
   id="g37"
   transform="matrix(0.95,0,0,0.95,6.8578,2.403825)">
	<path
   d="M 114.908,23.878 L 116.486,23.659 C 116.669,24.555 116.978,25.201 117.414,25.597 C 117.851,25.992 118.386,26.19 119.021,26.19 C 119.774,26.19 120.407,25.932 120.92,25.418 C 121.433,24.902 121.689,24.264 121.689,23.502 C 121.689,22.776 121.451,22.178 120.973,21.706 C 120.496,21.234 119.89,20.999 119.154,20.999 C 118.853,20.999 118.479,21.058 118.032,21.175 L 118.209,19.784 C 118.315,19.796 118.4,19.802 118.465,19.802 C 119.139,19.802 119.746,19.627 120.286,19.276 C 120.826,18.925 121.096,18.384 121.096,17.653 C 121.096,17.074 120.899,16.594 120.505,16.215 C 120.111,15.835 119.603,15.645 118.98,15.645 C 118.363,15.645 117.848,15.839 117.437,16.227 C 117.026,16.615 116.761,17.197 116.644,17.973 L 115.066,17.692 C 115.259,16.63 115.7,15.807 116.386,15.224 C 117.072,14.64 117.926,14.348 118.947,14.348 C 119.651,14.348 120.3,14.498 120.892,14.8 C 121.484,15.101 121.937,15.512 122.252,16.032 C 122.565,16.553 122.723,17.105 122.723,17.69 C 122.723,18.246 122.574,18.752 122.275,19.208 C 121.976,19.664 121.534,20.026 120.948,20.296 C 121.71,20.472 122.302,20.837 122.727,21.39 C 123.151,21.945 123.364,22.637 123.364,23.469 C 123.364,24.595 122.953,25.548 122.131,26.33 C 121.309,27.112 120.27,27.504 119.014,27.504 C 117.881,27.504 116.94,27.167 116.192,26.495 C 115.44,25.82 115.013,24.949 114.908,23.878 z "
   id="path39" />
</g>
<path
   d="M 85.3639,24.238625 L 86.7414,25.046125 L 79.3314,37.918625 L 77.9539,37.111125 L 85.3639,24.238625 z "
   id="polygon41" />
<g
   id="g43"
   transform="matrix(0.95,0,0,0.95,6.8578,2.403825)">
	<path
   d="M 14.55,91.434 L 14.55,74.246 L 16.831,74.246 L 16.831,81.309 L 25.722,81.309 L 25.722,74.246 L 28.003,74.246 L 28.003,91.434 L 25.722,91.434 L 25.722,83.34 L 16.831,83.34 L 16.831,91.434 L 14.55,91.434 z "
   id="path45" />
</g>
<g
   id="g47"
   transform="matrix(0.95,0,0,0.95,6.8578,2.403825)">
	<path
   d="M 30.012,92.527 L 31.59,92.308 C 31.773,93.204 32.082,93.85 32.518,94.246 C 32.955,94.641 33.49,94.839 34.125,94.839 C 34.878,94.839 35.511,94.581 36.024,94.067 C 36.537,93.551 36.793,92.913 36.793,92.151 C 36.793,91.425 36.555,90.827 36.077,90.355 C 35.6,89.883 34.994,89.648 34.258,89.648 C 33.957,89.648 33.583,89.707 33.136,89.824 L 33.313,88.433 C 33.419,88.445 33.504,88.451 33.569,88.451 C 34.243,88.451 34.85,88.276 35.39,87.925 C 35.93,87.574 36.2,87.033 36.2,86.302 C 36.2,85.723 36.003,85.243 35.609,84.864 C 35.215,84.484 34.707,84.294 34.084,84.294 C 33.467,84.294 32.952,84.488 32.541,84.876 C 32.13,85.264 31.865,85.846 31.748,86.622 L 30.17,86.341 C 30.363,85.279 30.804,84.456 31.49,83.873 C 32.176,83.289 33.03,82.997 34.051,82.997 C 34.755,82.997 35.404,83.147 35.996,83.449 C 36.588,83.75 37.041,84.161 37.356,84.681 C 37.669,85.202 37.827,85.754 37.827,86.339 C 37.827,86.895 37.678,87.401 37.379,87.857 C 37.08,88.313 36.638,88.675 36.052,88.945 C 36.814,89.121 37.406,89.486 37.831,90.039 C 38.255,90.594 38.468,91.286 38.468,92.118 C 38.468,93.244 38.057,94.197 37.235,94.979 C 36.413,95.761 35.374,96.153 34.118,96.153 C 32.985,96.153 32.044,95.816 31.296,95.144 C 30.544,94.47 30.117,93.599 30.012,92.527 z "
   id="path49" />
</g>
<g
   id="g51"
   transform="matrix(0.95,0,0,0.95,6.8578,2.403825)">
	<path
   d="M 52.589,85.406 L 54.87,85.98 C 54.394,87.85 53.537,89.276 52.301,90.257 C 51.064,91.238 49.551,91.73 47.764,91.73 C 45.914,91.73 44.41,91.353 43.251,90.598 C 42.092,89.844 41.21,88.75 40.605,87.32 C 40,85.889 39.698,84.352 39.698,82.711 C 39.698,80.921 40.039,79.358 40.722,78.025 C 41.405,76.692 42.376,75.678 43.637,74.987 C 44.897,74.296 46.283,73.949 47.797,73.949 C 49.514,73.949 50.957,74.387 52.127,75.263 C 53.298,76.14 54.113,77.371 54.573,78.96 L 52.339,79.487 C 51.941,78.237 51.364,77.327 50.608,76.757 C 49.851,76.187 48.899,75.902 47.753,75.902 C 46.435,75.902 45.333,76.218 44.447,76.851 C 43.562,77.484 42.94,78.333 42.581,79.4 C 42.222,80.467 42.043,81.566 42.043,82.699 C 42.043,84.16 42.255,85.435 42.68,86.525 C 43.105,87.615 43.765,88.429 44.662,88.968 C 45.559,89.507 46.529,89.777 47.574,89.777 C 48.845,89.777 49.92,89.41 50.801,88.675 C 51.682,87.94 52.277,86.852 52.589,85.406 z "
   id="path53" />
</g>
<path
   d="M 59.6664,71.929575 L 58.2889,71.121125 L 65.5089,58.629575 L 66.9339,59.436125 L 59.6664,71.929575 z "
   id="polygon55" />
<path
   style="fill:none;stroke:#000000;stroke-width:1.28250003"
   d="M 83.2264,42.146125 L 90.8264,42.146125 M 87.0264,38.346125 L 87.0264,45.946125"
   id="path57" />
<path
   d="M 203.3539,46.753625 L 203.3539,48.606125 L 179.7464,62.237675 L 178.93795,60.861125 L 203.3539,46.753625 z "
   id="polygon59" />
<g
   id="g61"
   transform="matrix(0.95,0,0,0.95,6.8578,2.403825)">
	<path
   d="M 246.631,70.906 L 248.912,71.48 C 248.435,73.35 247.579,74.776 246.343,75.757 C 245.106,76.738 243.594,77.23 241.807,77.23 C 239.957,77.23 238.453,76.853 237.293,76.098 C 236.134,75.344 235.252,74.25 234.647,72.82 C 234.042,71.39 233.74,69.852 233.74,68.211 C 233.74,66.421 234.082,64.858 234.763,63.525 C 235.447,62.192 236.417,61.178 237.678,60.487 C 238.938,59.796 240.324,59.449 241.838,59.449 C 243.555,59.449 244.998,59.887 246.168,60.763 C 247.339,61.64 248.153,62.871 248.614,64.46 L 246.38,64.987 C 245.982,63.737 245.405,62.827 244.649,62.257 C 243.893,61.687 242.94,61.402 241.794,61.402 C 240.476,61.402 239.374,61.718 238.488,62.351 C 237.603,62.984 236.98,63.833 236.622,64.9 C 236.264,65.967 236.084,67.066 236.084,68.199 C 236.084,69.66 236.297,70.935 236.721,72.025 C 237.147,73.115 237.807,73.929 238.703,74.468 C 239.599,75.007 240.57,75.277 241.615,75.277 C 242.885,75.277 243.961,74.91 244.842,74.175 C 245.723,73.44 246.319,72.352 246.631,70.906 z "
   id="path63" />
	<path
   d="M 251.807,76.934 L 251.807,59.746 L 254.088,59.746 L 254.088,66.809 L 262.979,66.809 L 262.979,59.746 L 265.26,59.746 L 265.26,76.934 L 262.979,76.934 L 262.979,68.84 L 254.088,68.84 L 254.088,76.934 L 251.807,76.934 z "
   id="path65" />
</g>
<g
   id="g67"
   transform="matrix(0.95,0,0,0.95,6.8578,2.403825)">
	<path
   d="M 265.858,78.027 L 267.436,77.808 C 267.618,78.704 267.928,79.35 268.364,79.746 C 268.8,80.141 269.336,80.339 269.971,80.339 C 270.723,80.339 271.357,80.081 271.869,79.567 C 272.382,79.051 272.639,78.413 272.639,77.651 C 272.639,76.925 272.401,76.327 271.922,75.855 C 271.445,75.383 270.839,75.148 270.104,75.148 C 269.803,75.148 269.428,75.207 268.981,75.324 L 269.159,73.933 C 269.264,73.945 269.35,73.951 269.415,73.951 C 270.089,73.951 270.696,73.776 271.235,73.425 C 271.775,73.074 272.046,72.533 272.046,71.802 C 272.046,71.223 271.849,70.743 271.454,70.364 C 271.06,69.984 270.552,69.794 269.929,69.794 C 269.312,69.794 268.798,69.988 268.386,70.376 C 267.974,70.764 267.71,71.346 267.593,72.122 L 266.015,71.841 C 266.208,70.779 266.648,69.956 267.335,69.373 C 268.021,68.789 268.874,68.497 269.896,68.497 C 270.599,68.497 271.248,68.647 271.84,68.949 C 272.433,69.25 272.886,69.661 273.2,70.181 C 273.513,70.702 273.671,71.254 273.671,71.839 C 273.671,72.395 273.521,72.901 273.222,73.357 C 272.923,73.813 272.482,74.175 271.896,74.445 C 272.658,74.621 273.25,74.986 273.675,75.539 C 274.099,76.094 274.312,76.786 274.312,77.618 C 274.312,78.744 273.9,79.697 273.079,80.479 C 272.258,81.261 271.219,81.653 269.963,81.653 C 268.829,81.653 267.889,81.316 267.141,80.644 C 266.389,79.97 265.963,79.099 265.858,78.027 z "
   id="path69" />
</g>
<path
   d="M 228.2914,61.146125 L 227.4839,62.571125 L 203.3539,48.606125 L 203.3539,46.753625 L 228.2914,61.146125 z "
   id="polygon71" />
<g
   id="g73"
   transform="matrix(0.95,0,0,0.95,6.8578,2.403825)">
	<path
   d="M 198.594,9.119 C 198.594,6.266 199.36,4.034 200.891,2.421 C 202.424,0.807 204.401,0 206.825,0 C 208.411,0 209.842,0.379 211.116,1.137 C 212.389,1.896 213.36,2.952 214.029,4.308 C 214.698,5.664 215.032,7.202 215.032,8.92 C 215.032,10.663 214.68,12.222 213.976,13.597 C 213.272,14.972 212.276,16.014 210.987,16.721 C 209.696,17.428 208.305,17.782 206.813,17.782 C 205.194,17.782 203.749,17.391 202.475,16.61 C 201.2,15.829 200.235,14.761 199.579,13.41 C 198.923,12.059 198.594,10.628 198.594,9.119 z M 200.938,9.148 C 200.938,11.218 201.495,12.849 202.608,14.041 C 203.723,15.232 205.12,15.828 206.801,15.828 C 208.512,15.828 209.922,15.226 211.028,14.023 C 212.134,12.82 212.688,11.113 212.688,8.902 C 212.688,7.504 212.452,6.283 211.978,5.24 C 211.504,4.197 210.813,3.388 209.903,2.814 C 208.992,2.24 207.969,1.953 206.837,1.953 C 205.226,1.953 203.841,2.506 202.679,3.611 C 201.518,4.717 200.938,6.563 200.938,9.148 z "
   id="path75" />
</g>
<path
   d="M 199.69641,21.436125 L 201.31141,21.436125 L 201.31141,49.318626 L 199.69641,49.318626 L 199.69641,21.436125 z "
   id="rect77" />
<path
   d="M 205.3489,21.436125 L 206.96295,21.436125 L 206.96295,49.318626 L 205.3489,49.318626 L 205.3489,21.436125 z "
   id="rect79" />
</svg>