<?xml version="1.0" encoding="iso-8859-1"?>
<!-- Generator: Adobe Illustrator 19.1.0, SVG Export Plug-In . SVG Version: 6.00 Build 0)  -->
<svg version="1.1" id="&#x421;&#x43B;&#x43E;&#x439;_1"
	 xmlns="http://www.w3.org/2000/svg" xmlns:xlink="http://www.w3.org/1999/xlink" x="0px" y="0px" viewBox="0 0 422.022 230.258"
	 style="enable-background:new 0 0 422.022 230.258;" xml:space="preserve">
<g>
	<rect x="150.371" y="108.743" transform="matrix(-0.866 -0.5 0.5 -0.866 268.1971 291.7479)" width="45.628" height="2.4"/>
	<rect x="112.713" y="121.35" width="2.4" height="45.628"/>
	
		<rect x="171.985" y="155.571" transform="matrix(-0.4996 -0.8663 0.8663 -0.4996 105.1824 417.5284)" width="2.4" height="45.628"/>
	<path d="M303.077,113.978l-48.585-28.05l5.902-38.121h-14.4l5.901,38.121l-48.585,28.05l-49.284-28.454l-0.599-0.346l-0.6,0.346
		l-49.283,28.454L69.633,94.399l-1.199,2.079l33.911,19.578v56.214l-31.157,17.988l1.199,2.079l31.158-17.989l47.551,27.454l1.732,1
		l0.6,0.346l0.599-0.346l1.732-1l46.419-26.8l0,0l1.732-1l0.601-0.345v-0.694v-2v-54.907l48.683-28.107l47.552,27.454l1.732,1
		l0.599,0.346l0.6-0.346l33.09-19.105l-1.199-2.079L303.077,113.978z M202.111,170.964v1.307l-1.132,0.653l0,0l-46.419,26.8
		l-1.133,0.654l-48.683-28.107v-56.214l47.55-27.453v0l1.133-0.654l1.133,0.654l0,0l47.551,27.453V170.964z"/>
	<path d="M53.662,71.769c-7.988,0-12.988,5.625-12.988,14.57c0,8.945,5,14.551,12.988,14.551c7.988,0,12.988-5.605,12.988-14.551
		C66.65,77.394,61.65,71.769,53.662,71.769z M53.662,97.648c-5.762,0-9.375-4.375-9.375-11.309c0-6.953,3.613-11.328,9.375-11.328
		c5.762,0,9.375,4.375,9.375,11.328C63.037,93.272,59.423,97.648,53.662,97.648z"/>
	<polygon points="33.158,84.425 17.689,84.425 17.689,72.237 14.173,72.237 14.173,100.421 17.689,100.421 17.689,87.589 
		33.158,87.589 33.158,100.421 36.673,100.421 36.673,72.237 33.158,72.237 	"/>
	<path d="M53.662,186.969c-7.988,0-12.988,5.625-12.988,14.57s5,14.551,12.988,14.551c7.988,0,12.988-5.605,12.988-14.551
		S61.65,186.969,53.662,186.969z M53.662,212.848c-5.762,0-9.375-4.375-9.375-11.309c0-6.953,3.613-11.328,9.375-11.328
		c5.762,0,9.375,4.375,9.375,11.328C63.037,208.473,59.423,212.848,53.662,212.848z"/>
	<polygon points="33.158,199.625 17.689,199.625 17.689,187.437 14.173,187.437 14.173,215.621 17.689,215.621 17.689,202.789 
		33.158,202.789 33.158,215.621 36.673,215.621 36.673,187.437 33.158,187.437 	"/>
	<polygon points="360.733,94.132 360.558,94.132 345.128,72.003 341.71,72.003 341.71,100.187 345.187,100.187 345.187,78.136 
		345.362,78.136 360.792,100.187 364.21,100.187 364.21,72.003 360.733,72.003 	"/>
	<polygon points="387.194,84.19 371.726,84.19 371.726,72.003 368.21,72.003 368.21,100.187 371.726,100.187 371.726,87.354 
		387.194,87.354 387.194,100.187 390.71,100.187 390.71,72.003 387.194,72.003 	"/>
	<path d="M398.237,104.255V104.2l4.99-5.154c3.295-3.404,4.293-5.045,4.293-7.246c0-3.021-2.775-5.414-6.303-5.414
		c-3.719,0-6.508,2.57-6.508,6.016v0.014h2.379v-0.014c0-2.201,1.75-3.869,4.061-3.869c2.174,0,3.91,1.518,3.91,3.418
		c0,1.641-0.629,2.693-3.281,5.482l-6.945,7.314v1.695h13.016v-2.188H398.237z"/>
	<path d="M253.194,43.29c7.988,0,12.988-5.605,12.988-14.551c0-8.945-5-14.57-12.988-14.57c-7.988,0-12.988,5.625-12.988,14.57
		C240.206,37.684,245.206,43.29,253.194,43.29z M253.194,17.411c5.762,0,9.375,4.375,9.375,11.328
		c0,6.933-3.613,11.309-9.375,11.309c-5.762,0-9.375-4.375-9.375-11.309C243.819,21.786,247.432,17.411,253.194,17.411z"/>
	<polygon points="273.698,29.989 289.167,29.989 289.167,42.821 292.682,42.821 292.682,14.637 289.167,14.637 289.167,26.825 
		273.698,26.825 273.698,14.637 270.182,14.637 270.182,42.821 273.698,42.821 	"/>
</g>
</svg>
