<?xml version="1.0" encoding="utf-8"?>
<!-- Generator: Adobe Illustrator 19.2.1, SVG Export Plug-In . SVG Version: 6.00 Build 0)  -->
<svg version="1.1" id="Слой_1" xmlns="http://www.w3.org/2000/svg" xmlns:xlink="http://www.w3.org/1999/xlink" x="0px" y="0px"
	 viewBox="0 0 419.1 303.4" style="enable-background:new 0 0 419.1 303.4;" xml:space="preserve">
<g>
	<rect x="112.7" y="174.1" width="2.4" height="45.6"/>
	<rect x="150.4" y="229.9" transform="matrix(0.8663 -0.4995 0.4995 0.8663 -92.2825 117.4147)" width="45.6" height="2.4"/>
	<rect x="172" y="139.8" transform="matrix(0.5 -0.866 0.866 0.5 -54.2635 231.3107)" width="2.4" height="45.6"/>
	<rect x="265.4" y="156.9" transform="matrix(0.809 -0.5878 0.5878 0.809 -54.6812 191.0369)" width="2.4" height="45.6"/>
	<path d="M342.5,48.1l-11.2,34.4l-55.7,11.8l-0.7,0.1l-0.2,0.7l-0.6,1.9l0,0l-17,52.3l-53.7,17.4L154,138.2l-0.6-0.3l-0.6,0.3
		l-1.7,1l0,0l-47.6,27.5l-33.9-19.6l-1.2,2.1l33.9,19.6v54.9v2l0,0.7l0.6,0.3l1.7,1v0l46.4,26.8l0,0l1.7,1l0.6,0.3l0.6-0.3
		l49.4-28.5l36.9,12l0.7-2.3l-36.6-11.9v-55.9l53.1-17.3l32.2,44.3l0,0l0.7,0.9l-0.7,0.9l0,0L271.5,223l1.9,1.4l18.3-25.2l0,0
		l1.2-1.6l0.5-0.7l-0.5-0.7l-1.2-1.6l0,0l-32.3-44.5l17.4-53.5l1.3-0.3v0l54.4-11.6l0.7-0.1l0.2-0.7L334,82l0,0l10.8-33.2
		L342.5,48.1z M104.7,225v-1.3v-54.9l47.6-27.5l0,0l1.1-0.7l48.7,28.1V225l-47.6,27.5l0,0l-1.1,0.7l-1.1-0.7l0,0L104.7,225z
		 M203.3,225.7L203.3,225.7L203.3,225.7L203.3,225.7z M258.1,150.3L258.1,150.3L258.1,150.3L258.1,150.3z"/>
	<path d="M53.7,124.5c-8,0-13,5.6-13,14.6s5,14.6,13,14.6c8,0,13-5.6,13-14.6S61.7,124.5,53.7,124.5z M53.7,150.4
		c-5.8,0-9.4-4.4-9.4-11.3c0-7,3.6-11.3,9.4-11.3c5.8,0,9.4,4.4,9.4,11.3C63,146,59.4,150.4,53.7,150.4z"/>
	<polygon points="33.2,137.1 17.7,137.1 17.7,124.9 14.2,124.9 14.2,153.1 17.7,153.1 17.7,140.3 33.2,140.3 33.2,153.1 36.7,153.1 
		36.7,124.9 33.2,124.9 	"/>
	<polygon points="265.9,251 265.7,251 250.3,228.9 246.8,228.9 246.8,257.1 250.3,257.1 250.3,235 250.5,235 265.9,257.1 
		269.3,257.1 269.3,228.9 265.9,228.9 	"/>
	<polygon points="265.8,273.3 250.4,273.3 250.4,261.1 246.8,261.1 246.8,289.3 250.4,289.3 250.4,276.4 265.8,276.4 265.8,289.3 
		269.3,289.3 269.3,261.1 265.8,261.1 	"/>
	<polygon points="357.8,36.3 357.6,36.3 342.2,14.2 338.8,14.2 338.8,42.4 342.3,42.4 342.3,20.3 342.4,20.3 357.9,42.4 361.3,42.4 
		361.3,14.2 357.8,14.2 	"/>
	<polygon points="384.3,26.4 368.8,26.4 368.8,14.2 365.3,14.2 365.3,42.4 368.8,42.4 368.8,29.5 384.3,29.5 384.3,42.4 387.8,42.4 
		387.8,14.2 384.3,14.2 	"/>
	<path d="M395.3,46.4L395.3,46.4l5-5.2c3.3-3.4,4.3-5,4.3-7.2c0-3-2.8-5.4-6.3-5.4c-3.7,0-6.5,2.6-6.5,6v0h2.4v0
		c0-2.2,1.8-3.9,4.1-3.9c2.2,0,3.9,1.5,3.9,3.4c0,1.6-0.6,2.7-3.3,5.5l-6.9,7.3v1.7h13v-2.2H395.3z"/>
</g>
</svg>
