<?xml version="1.0" encoding="utf-8"?>
<!-- Generator: Adobe Illustrator 19.1.0, SVG Export Plug-In . SVG Version: 6.00 Build 0)  -->
<svg version="1.1" id="Слой_1" xmlns="http://www.w3.org/2000/svg" xmlns:xlink="http://www.w3.org/1999/xlink" x="0px" y="0px"
	 viewBox="0 0 422 172.7" style="enable-background:new 0 0 422 172.7;" xml:space="preserve">
<g>
	<rect x="112.7" y="63.7" width="2.4" height="45.6"/>
	<rect x="172" y="98" transform="matrix(-0.4996 -0.8663 0.8663 -0.4996 155.0786 331.1513)" width="2.4" height="45.6"/>
	<rect x="150.4" y="51.1" transform="matrix(-0.866 -0.5 0.5 -0.866 296.997 184.2648)" width="45.6" height="2.4"/>
	<path d="M303.1,56.4l-49.3-28.5l-0.6-0.3l-0.6,0.3l-49.3,28.5L154,27.9l-0.6-0.3l-0.6,0.3l-49.3,28.5L69.6,36.8l-1.2,2.1l33.9,19.6
		v56.2l-31.2,18l1.2,2.1l31.2-18l47.6,27.5l0,0l1.7,1l0.6,0.3l0.6-0.3l1.7-1l0,0l46.4-26.8l0,0l1.7-1l0.6-0.3v-0.7v-2V58.5L252.1,31
		l0,0l1.1-0.7l1.1,0.7l0,0l46.4,26.8l0,0l1.7,1l0.6,0.3l0.6-0.3l33.1-19.1l-1.2-2.1L303.1,56.4z M202.1,114.7l-1.1,0.7l0,0
		l-46.4,26.8l0,0l-1.1,0.7l-48.7-28.1V58.5L152.3,31v0l1.1-0.7l1.1,0.7l0,0l47.6,27.5v54.9V114.7z"/>
	<path d="M53.7,14.2c-8,0-13,5.6-13,14.6c0,8.9,5,14.6,13,14.6c8,0,13-5.6,13-14.6C66.6,19.8,61.6,14.2,53.7,14.2z M53.7,40
		c-5.8,0-9.4-4.4-9.4-11.3c0-7,3.6-11.3,9.4-11.3c5.8,0,9.4,4.4,9.4,11.3C63,35.7,59.4,40,53.7,40z"/>
	<polygon points="33.2,26.8 17.7,26.8 17.7,14.6 14.2,14.6 14.2,42.8 17.7,42.8 17.7,30 33.2,30 33.2,42.8 36.7,42.8 36.7,14.6 
		33.2,14.6 	"/>
	<path d="M53.7,129.4c-8,0-13,5.6-13,14.6s5,14.6,13,14.6c8,0,13-5.6,13-14.6S61.6,129.4,53.7,129.4z M53.7,155.2
		c-5.8,0-9.4-4.4-9.4-11.3c0-7,3.6-11.3,9.4-11.3c5.8,0,9.4,4.4,9.4,11.3C63,150.9,59.4,155.2,53.7,155.2z"/>
	<polygon points="33.2,142 17.7,142 17.7,129.8 14.2,129.8 14.2,158 17.7,158 17.7,145.2 33.2,145.2 33.2,158 36.7,158 36.7,129.8 
		33.2,129.8 	"/>
	<polygon points="360.7,36.5 360.6,36.5 345.1,14.4 341.7,14.4 341.7,42.6 345.2,42.6 345.2,20.5 345.4,20.5 360.8,42.6 364.2,42.6 
		364.2,14.4 360.7,14.4 	"/>
	<polygon points="387.2,26.6 371.7,26.6 371.7,14.4 368.2,14.4 368.2,42.6 371.7,42.6 371.7,29.8 387.2,29.8 387.2,42.6 390.7,42.6 
		390.7,14.4 387.2,14.4 	"/>
	<path d="M398.2,46.7L398.2,46.7l5-5.2c3.3-3.4,4.3-5,4.3-7.2c0-3-2.8-5.4-6.3-5.4c-3.7,0-6.5,2.6-6.5,6v0h2.4v0
		c0-2.2,1.8-3.9,4.1-3.9c2.2,0,3.9,1.5,3.9,3.4c0,1.6-0.6,2.7-3.3,5.5l-6.9,7.3v1.7h13v-2.2H398.2z"/>
</g>
</svg>
