<?xml version="1.0" encoding="UTF-8" standalone="no"?>
<!-- Generator: Adobe Illustrator 12.0.1, SVG Export Plug-In . SVG Version: 6.00 Build 51448)  -->
<svg
   xmlns:dc="http://purl.org/dc/elements/1.1/"
   xmlns:cc="http://web.resource.org/cc/"
   xmlns:rdf="http://www.w3.org/1999/02/22-rdf-syntax-ns#"
   xmlns:svg="http://www.w3.org/2000/svg"
   xmlns="http://www.w3.org/2000/svg"
   xmlns:sodipodi="http://sodipodi.sourceforge.net/DTD/sodipodi-0.dtd"
   xmlns:inkscape="http://www.inkscape.org/namespaces/inkscape"
   version="1.1"
   id="Layer_1"
   width="255.521"
   height="121.185"
   viewBox="0 0 255.521 121.185"
   style="overflow:visible;enable-background:new 0 0 255.521 121.185;"
   xml:space="preserve"
   sodipodi:version="0.32"
   inkscape:version="0.45.1"
   sodipodi:docname="L-Glutaminsäure.svg"
   inkscape:output_extension="org.inkscape.output.svg.inkscape"
   sodipodi:docbase="C:\"><metadata
   id="metadata58"><rdf:RDF><cc:Work
       rdf:about=""><dc:format>image/svg+xml</dc:format><dc:type
         rdf:resource="http://purl.org/dc/dcmitype/StillImage" /></cc:Work></rdf:RDF></metadata><defs
   id="defs56" /><sodipodi:namedview
   inkscape:window-height="579"
   inkscape:window-width="801"
   inkscape:pageshadow="2"
   inkscape:pageopacity="0.0"
   guidetolerance="10.0"
   gridtolerance="10.0"
   objecttolerance="10.0"
   borderopacity="1.0"
   bordercolor="#666666"
   pagecolor="#ffffff"
   id="base"
   inkscape:zoom="2.8060316"
   inkscape:cx="127.7605"
   inkscape:cy="60.592499"
   inkscape:window-x="22"
   inkscape:window-y="22"
   inkscape:current-layer="Layer_1" />
<path
   d="M 127.71443,49.280375 L 127.71443,47.426925 L 160.39442,66.236925 L 160.39442,67.186925 L 159.53942,67.614425 L 127.71443,49.280375 z "
   id="polygon3" />
<path
   d="M 161.24943,67.614425 L 160.39442,67.186925 L 160.39442,66.236925 L 193.02692,47.426925 L 193.02692,49.280375 L 161.24943,67.614425 z "
   id="polygon5" />
<g
   id="g7"
   transform="matrix(0.95,0,0,0.95,6.388025,3.029625)">
	<path
   d="M 222.619,68.619 C 222.619,65.766 223.385,63.534 224.917,61.921 C 226.449,60.307 228.427,59.5 230.85,59.5 C 232.437,59.5 233.867,59.879 235.141,60.637 C 236.415,61.396 237.386,62.452 238.054,63.808 C 238.723,65.163 239.057,66.702 239.057,68.42 C 239.057,70.163 238.705,71.722 238.001,73.097 C 237.298,74.472 236.302,75.514 235.012,76.221 C 233.722,76.928 232.331,77.282 230.838,77.282 C 229.22,77.282 227.774,76.891 226.5,76.11 C 225.226,75.329 224.261,74.261 223.604,72.91 C 222.947,71.558 222.619,70.128 222.619,68.619 z M 224.962,68.648 C 224.962,70.718 225.519,72.349 226.633,73.541 C 227.747,74.733 229.145,75.328 230.825,75.328 C 232.537,75.328 233.946,74.726 235.053,73.523 C 236.158,72.32 236.712,70.613 236.712,68.402 C 236.712,67.004 236.476,65.783 236.002,64.74 C 235.529,63.697 234.838,62.888 233.927,62.314 C 233.016,61.74 231.994,61.453 230.861,61.453 C 229.251,61.453 227.865,62.006 226.704,63.111 C 225.543,64.216 224.962,66.063 224.962,68.648 z "
   id="path9" />
	<path
   d="M 242.068,76.984 L 242.068,59.797 L 244.349,59.797 L 244.349,66.86 L 253.24,66.86 L 253.24,59.797 L 255.521,59.797 L 255.521,76.985 L 253.24,76.985 L 253.24,68.891 L 244.349,68.891 L 244.349,76.985 L 242.068,76.985 L 242.068,76.984 z "
   id="path11" />
</g>
<path
   d="M 193.02692,49.280375 L 193.02692,47.426925 L 217.48942,61.535375 L 216.68193,62.960375 L 193.02692,49.280375 z "
   id="polygon13" />
<g
   id="g15"
   transform="matrix(0.95,0,0,0.95,6.388025,3.029625)">
	<path
   d="M 188.219,9.119 C 188.219,6.266 188.985,4.034 190.516,2.421 C 192.049,0.807 194.026,0 196.45,0 C 198.036,0 199.467,0.379 200.741,1.137 C 202.014,1.896 202.985,2.952 203.654,4.308 C 204.323,5.664 204.657,7.202 204.657,8.92 C 204.657,10.663 204.305,12.222 203.601,13.597 C 202.897,14.972 201.901,16.014 200.612,16.721 C 199.321,17.428 197.93,17.782 196.438,17.782 C 194.819,17.782 193.374,17.391 192.1,16.61 C 190.825,15.829 189.86,14.761 189.204,13.41 C 188.548,12.059 188.219,10.628 188.219,9.119 z M 190.563,9.148 C 190.563,11.218 191.12,12.849 192.233,14.041 C 193.348,15.232 194.745,15.828 196.426,15.828 C 198.137,15.828 199.547,15.226 200.653,14.023 C 201.759,12.82 202.313,11.113 202.313,8.902 C 202.313,7.504 202.077,6.283 201.603,5.24 C 201.129,4.197 200.438,3.388 199.528,2.814 C 198.617,2.24 197.594,1.953 196.462,1.953 C 194.851,1.953 193.466,2.506 192.304,3.611 C 191.143,4.717 190.563,6.563 190.563,9.148 z "
   id="path17" />
</g>
<path
   d="M 189.36943,22.062875 L 190.98537,22.062875 L 190.98537,49.992874 L 189.36943,49.992874 L 189.36943,22.062875 z "
   id="rect19" />
<path
   d="M 195.06943,22.062875 L 196.68537,22.062875 L 196.68537,49.992874 L 195.06943,49.992874 L 195.06943,22.062875 z "
   id="rect21" />
<g
   id="g23"
   transform="matrix(0.95,0,0,0.95,6.388025,3.029625)">
	<path
   d="M 155.291,116.685 L 155.291,99.497 L 157.631,99.497 L 166.635,112.986 L 166.635,99.497 L 168.823,99.497 L 168.823,116.685 L 166.483,116.685 L 157.479,103.196 L 157.479,116.685 L 155.291,116.685 z "
   id="path25" />
	<path
   d="M 172.732,116.685 L 172.732,99.497 L 175.013,99.497 L 175.013,106.56 L 183.904,106.56 L 183.904,99.497 L 186.185,99.497 L 186.185,116.685 L 183.904,116.685 L 183.904,108.591 L 175.013,108.591 L 175.013,116.685 L 172.732,116.685 z "
   id="path27" />
</g>
<g
   id="g29"
   transform="matrix(0.95,0,0,0.95,6.388025,3.029625)">
	<path
   d="M 196.967,119.669 L 196.967,121.185 L 188.436,121.185 C 188.424,120.804 188.485,120.438 188.622,120.086 C 188.84,119.506 189.188,118.935 189.67,118.373 C 190.15,117.811 190.841,117.162 191.739,116.426 C 193.135,115.273 194.082,114.362 194.579,113.692 C 195.077,113.022 195.327,112.387 195.327,111.789 C 195.327,111.163 195.101,110.636 194.651,110.205 C 194.201,109.775 193.614,109.56 192.891,109.56 C 192.125,109.56 191.514,109.789 191.055,110.248 C 190.596,110.707 190.364,111.342 190.358,112.153 L 188.733,111.981 C 188.844,110.765 189.264,109.839 189.993,109.203 C 190.721,108.565 191.698,108.247 192.927,108.247 C 194.165,108.247 195.146,108.59 195.868,109.276 C 196.591,109.962 196.952,110.812 196.952,111.826 C 196.952,112.342 196.846,112.849 196.634,113.347 C 196.423,113.845 196.071,114.37 195.581,114.921 C 195.091,115.472 194.277,116.228 193.142,117.189 C 192.191,117.987 191.579,118.527 191.308,118.812 C 191.037,119.095 190.812,119.381 190.636,119.668 L 196.967,119.668 L 196.967,119.669 z "
   id="path31" />
</g>
<path
   d="M 164.00538,95.355375 L 156.73693,95.355375 L 159.53942,67.614425 L 160.39442,67.186925 L 161.24943,67.614425 L 164.00538,95.355375 z "
   id="polygon33" />
<path
   d="M 127.71443,47.426925 L 127.71443,49.280375 L 95.081925,68.136925 L 95.081925,66.236925 L 127.71443,47.426925 z "
   id="polygon35" />
<path
   d="M 95.081925,66.236925 L 95.081925,68.136925 L 62.450375,49.280375 L 62.450375,47.426925 L 95.081925,66.236925 z "
   id="polygon37" />
<g
   id="g39"
   transform="matrix(0.95,0,0,0.95,6.388025,3.029625)">
	<path
   d="M 0,76.984 L 0,59.797 L 2.281,59.797 L 2.281,66.86 L 11.172,66.86 L 11.172,59.797 L 13.453,59.797 L 13.453,76.985 L 11.172,76.985 L 11.172,68.891 L 2.281,68.891 L 2.281,76.985 L 0,76.985 L 0,76.984 z "
   id="path41" />
	<path
   d="M 16.551,68.619 C 16.551,65.766 17.317,63.534 18.849,61.921 C 20.381,60.307 22.359,59.5 24.782,59.5 C 26.369,59.5 27.799,59.879 29.073,60.637 C 30.347,61.396 31.318,62.452 31.987,63.808 C 32.656,65.164 32.989,66.702 32.989,68.42 C 32.989,70.163 32.637,71.722 31.934,73.097 C 31.231,74.472 30.234,75.514 28.944,76.221 C 27.654,76.928 26.263,77.282 24.77,77.282 C 23.152,77.282 21.706,76.891 20.432,76.11 C 19.158,75.329 18.193,74.261 17.536,72.91 C 16.879,71.559 16.551,70.128 16.551,68.619 z M 18.895,68.648 C 18.895,70.718 19.452,72.349 20.566,73.541 C 21.68,74.733 23.078,75.328 24.758,75.328 C 26.47,75.328 27.879,74.726 28.986,73.523 C 30.092,72.32 30.645,70.613 30.645,68.402 C 30.645,67.004 30.409,65.783 29.936,64.74 C 29.463,63.697 28.771,62.888 27.86,62.314 C 26.949,61.74 25.927,61.453 24.794,61.453 C 23.184,61.453 21.798,62.006 20.637,63.111 C 19.476,64.216 18.895,66.063 18.895,68.648 z "
   id="path43" />
</g>
<path
   d="M 62.450375,47.426925 L 62.450375,49.280375 L 38.842875,62.911925 L 38.035375,61.486925 L 62.450375,47.426925 z "
   id="polygon45" />
<g
   id="g47"
   transform="matrix(0.95,0,0,0.95,6.388025,3.029625)">
	<path
   d="M 50.769,9.119 C 50.769,6.266 51.535,4.034 53.067,2.421 C 54.599,0.807 56.576,0 58.999,0 C 60.586,0 62.016,0.379 63.29,1.137 C 64.564,1.896 65.535,2.952 66.204,4.308 C 66.873,5.664 67.206,7.202 67.206,8.92 C 67.206,10.663 66.854,12.222 66.151,13.597 C 65.448,14.972 64.451,16.014 63.161,16.721 C 61.871,17.428 60.48,17.782 58.987,17.782 C 57.369,17.782 55.923,17.391 54.649,16.61 C 53.375,15.829 52.41,14.761 51.753,13.41 C 51.096,12.059 50.769,10.628 50.769,9.119 z M 53.112,9.148 C 53.112,11.218 53.669,12.849 54.783,14.041 C 55.897,15.233 57.295,15.828 58.975,15.828 C 60.687,15.828 62.096,15.226 63.203,14.023 C 64.309,12.82 64.862,11.113 64.862,8.902 C 64.862,7.504 64.626,6.283 64.153,5.24 C 63.68,4.197 62.988,3.388 62.077,2.814 C 61.166,2.24 60.144,1.953 59.011,1.953 C 57.401,1.953 56.015,2.506 54.854,3.611 C 53.693,4.716 53.112,6.563 53.112,9.148 z "
   id="path49" />
</g>
<path
   d="M 58.792873,22.062875 L 60.407873,22.062875 L 60.407873,49.992874 L 58.792873,49.992874 L 58.792873,22.062875 z "
   id="rect51" />
<path
   d="M 64.444425,22.062875 L 66.059425,22.062875 L 66.059425,49.992874 L 64.444425,49.992874 L 64.444425,22.062875 z "
   id="rect53" />
</svg>