<?xml version="1.0" encoding="UTF-8" standalone="no"?>
<!-- Generator: Adobe Illustrator 12.0.1, SVG Export Plug-In . SVG Version: 6.00 Build 51448)  -->
<svg
   xmlns:dc="http://purl.org/dc/elements/1.1/"
   xmlns:cc="http://web.resource.org/cc/"
   xmlns:rdf="http://www.w3.org/1999/02/22-rdf-syntax-ns#"
   xmlns:svg="http://www.w3.org/2000/svg"
   xmlns="http://www.w3.org/2000/svg"
   xmlns:sodipodi="http://sodipodi.sourceforge.net/DTD/sodipodi-0.dtd"
   xmlns:inkscape="http://www.inkscape.org/namespaces/inkscape"
   version="1.1"
   id="Layer_1"
   width="100.23"
   height="121.184"
   viewBox="0 0 100.23 121.184"
   style="overflow:visible;enable-background:new 0 0 100.23 121.184;"
   xml:space="preserve"
   sodipodi:version="0.32"
   inkscape:version="0.44.1"
   sodipodi:docname="Glycin.svg"
   sodipodi:docbase="E:\Eigene Dateien"><metadata
   id="metadata36"><rdf:RDF><cc:Work
       rdf:about=""><dc:format>image/svg+xml</dc:format><dc:type
         rdf:resource="http://purl.org/dc/dcmitype/StillImage" /></cc:Work></rdf:RDF></metadata><defs
   id="defs34" /><sodipodi:namedview
   inkscape:window-height="573"
   inkscape:window-width="925"
   inkscape:pageshadow="2"
   inkscape:pageopacity="0.0"
   guidetolerance="10.0"
   gridtolerance="10.0"
   objecttolerance="10.0"
   borderopacity="1.0"
   bordercolor="#666666"
   pagecolor="#ffffff"
   id="base"
   inkscape:zoom="3.1192237"
   inkscape:cx="50.115002"
   inkscape:cy="60.591999"
   inkscape:window-x="176"
   inkscape:window-y="176"
   inkscape:current-layer="Layer_1" />
<path
   d="M 9.79415,67.6619 L 8.17915,66.7119 L 41.61915,47.4269 L 41.61915,49.2794 L 9.79415,67.6619 z "
   id="polygon3" />
<g
   id="g5"
   transform="matrix(0.95,0,0,0.95,2.50575,3.0296)">
	<path
   d="M 67.328,68.619 C 67.328,65.767 68.094,63.534 69.626,61.92 C 71.158,60.307 73.136,59.5 75.559,59.5 C 77.146,59.5 78.577,59.879 79.85,60.637 C 81.123,61.395 82.095,62.452 82.764,63.808 C 83.432,65.164 83.766,66.702 83.766,68.42 C 83.766,70.162 83.414,71.722 82.711,73.097 C 82.007,74.473 81.01,75.514 79.721,76.221 C 78.431,76.928 77.039,77.282 75.547,77.282 C 73.929,77.282 72.483,76.891 71.209,76.11 C 69.935,75.329 68.97,74.262 68.313,72.91 C 67.656,71.558 67.328,70.127 67.328,68.619 z M 69.672,68.648 C 69.672,70.718 70.229,72.349 71.343,73.541 C 72.457,74.733 73.855,75.328 75.535,75.328 C 77.247,75.328 78.656,74.726 79.763,73.523 C 80.87,72.32 81.422,70.613 81.422,68.402 C 81.422,67.004 81.186,65.783 80.713,64.74 C 80.239,63.697 79.547,62.888 78.637,62.314 C 77.727,61.74 76.704,61.453 75.571,61.453 C 73.961,61.453 72.575,62.006 71.414,63.111 C 70.253,64.216 69.672,66.063 69.672,68.648 z "
   id="path7" />
	<path
   d="M 86.777,76.984 L 86.777,59.797 L 89.058,59.797 L 89.058,66.86 L 97.949,66.86 L 97.949,59.797 L 100.23,59.797 L 100.23,76.985 L 97.949,76.985 L 97.949,68.891 L 89.058,68.891 L 89.058,76.985 L 86.777,76.985 L 86.777,76.984 z "
   id="path9" />
</g>
<path
   d="M 41.61915,49.2794 L 41.61915,47.4269 L 66.08165,61.5344 L 65.27415,62.9594 L 41.61915,49.2794 z "
   id="polygon11" />
<g
   id="g13"
   transform="matrix(0.95,0,0,0.95,2.50575,3.0296)">
	<path
   d="M 32.928,9.119 C 32.928,6.267 33.694,4.034 35.226,2.42 C 36.758,0.807 38.736,0 41.159,0 C 42.746,0 44.176,0.379 45.45,1.137 C 46.724,1.895 47.695,2.952 48.364,4.308 C 49.032,5.664 49.366,7.202 49.366,8.92 C 49.366,10.662 49.014,12.222 48.311,13.597 C 47.607,14.973 46.611,16.014 45.321,16.721 C 44.031,17.428 42.64,17.782 41.147,17.782 C 39.529,17.782 38.083,17.391 36.809,16.61 C 35.535,15.829 34.57,14.762 33.913,13.41 C 33.256,12.058 32.928,10.627 32.928,9.119 z M 35.272,9.148 C 35.272,11.218 35.829,12.849 36.943,14.041 C 38.057,15.233 39.455,15.828 41.135,15.828 C 42.847,15.828 44.256,15.226 45.363,14.023 C 46.469,12.82 47.022,11.113 47.022,8.902 C 47.022,7.504 46.786,6.283 46.313,5.24 C 45.84,4.197 45.148,3.388 44.237,2.814 C 43.326,2.24 42.304,1.953 41.171,1.953 C 39.561,1.953 38.175,2.506 37.014,3.611 C 35.853,4.716 35.272,6.563 35.272,9.148 z "
   id="path15" />
</g>
<path
   d="M 37.961649,22.0619 L 39.576649,22.0619 L 39.576649,49.9919 L 37.961649,49.9919 L 37.961649,22.0619 z "
   id="rect17" />
<path
   d="M 43.661649,22.0619 L 45.276649,22.0619 L 45.276649,49.9919 L 43.661649,49.9919 L 43.661649,22.0619 z "
   id="rect19" />
<g
   id="g21"
   transform="matrix(0.95,0,0,0.95,2.50575,3.0296)">
	<path
   d="M 0,116.684 L 0,99.496 L 2.34,99.496 L 11.344,112.984 L 11.344,99.496 L 13.532,99.496 L 13.532,116.684 L 11.192,116.684 L 2.188,103.195 L 2.188,116.684 L 0,116.684 z "
   id="path23" />
	<path
   d="M 17.441,116.684 L 17.441,99.496 L 19.722,99.496 L 19.722,106.559 L 28.613,106.559 L 28.613,99.496 L 30.894,99.496 L 30.894,116.684 L 28.613,116.684 L 28.613,108.59 L 19.722,108.59 L 19.722,116.684 L 17.441,116.684 z "
   id="path25" />
</g>
<g
   id="g27"
   transform="matrix(0.95,0,0,0.95,2.50575,3.0296)">
	<path
   d="M 40.676,119.668 L 40.676,121.184 L 32.145,121.184 C 32.133,120.803 32.195,120.437 32.331,120.084 C 32.549,119.504 32.898,118.934 33.379,118.372 C 33.859,117.81 34.549,117.161 35.449,116.424 C 36.845,115.272 37.791,114.361 38.289,113.691 C 38.787,113.021 39.036,112.387 39.036,111.788 C 39.036,111.162 38.811,110.634 38.361,110.204 C 37.911,109.774 37.324,109.559 36.601,109.559 C 35.835,109.559 35.224,109.788 34.765,110.247 C 34.306,110.705 34.074,111.341 34.068,112.152 L 32.443,111.98 C 32.554,110.765 32.974,109.838 33.703,109.201 C 34.431,108.564 35.409,108.246 36.637,108.246 C 37.876,108.246 38.857,108.589 39.579,109.275 C 40.301,109.961 40.662,110.81 40.662,111.825 C 40.662,112.342 40.556,112.848 40.345,113.346 C 40.134,113.844 39.782,114.368 39.292,114.92 C 38.801,115.471 37.988,116.228 36.852,117.189 C 35.901,117.986 35.29,118.527 35.019,118.81 C 34.748,119.095 34.523,119.38 34.346,119.667 L 40.676,119.667 L 40.676,119.668 z "
   id="path29" />
</g>
<path
   d="M 9.79415,95.4019 L 8.17915,95.4019 L 8.17915,66.7119 L 9.79415,67.6619 L 9.79415,95.4019 z "
   id="polygon31" />
</svg>